<svg width="10" height="10" viewBox="0 0 10 10" fill="none" xmlns="http://www.w3.org/2000/svg">
<g clip-path="url(#clip0_6_22)">
<path d="M5.10577 1.25146C5.07063 1.25049 5.03538 1.25 5 1.25C2.92893 1.25 1.25 2.92893 1.25 5C1.25 7.07106 2.92893 8.75 5 8.75C7.07106 8.75 8.75 7.07106 8.75 5C8.75 4.96462 8.7495 4.92937 8.74856 4.89423L9.85263 3.79014C9.94888 4.17754 10 4.58281 10 5C10 7.76144 7.76144 10 5 10C2.23857 10 0 7.76144 0 5C0 2.23857 2.23857 0 5 0C5.41719 0 5.82246 0.0510954 6.20986 0.147369L5.10577 1.25146Z" fill="#F2F2F2"/>
<path d="M2.5 4.99997C2.5 3.83507 3.29673 2.85626 4.375 2.57874V3.9172C4.00137 4.13333 3.75 4.5373 3.75 4.99997C3.75 5.69033 4.30964 6.24997 5 6.24997C5.46267 6.24997 5.86664 5.9986 6.08277 5.62497H7.42125C7.14369 6.70325 6.1649 7.5 5 7.5C3.61929 7.5 2.5 6.38069 2.5 4.99997Z" fill="#F2F2F2"/>
<path d="M8.75 1.25L8.125 0L6.25 1.875V2.86612L4.87056 4.24556L5.75445 5.12944L7.13388 3.75H8.125L10 1.875L8.75 1.25Z" fill="#F2F2F2"/>
</g>
<defs>
<clipPath id="clip0_6_22">
<rect width="10" height="10" fill="white"/>
</clipPath>
</defs>
</svg>
