<svg width="8" height="8" viewBox="0 0 8 8" fill="none" xmlns="http://www.w3.org/2000/svg">
<path fill-rule="evenodd" clip-rule="evenodd" d="M3.58561 4.11738C3.58561 4.34751 3.77215 4.53405 4.00228 4.53405C4.2324 4.53405 4.41895 4.34751 4.41895 4.11738V2.86738C4.41895 2.63726 4.2324 2.45071 4.00228 2.45071C3.77215 2.45071 3.58561 2.63726 3.58561 2.86738V4.11738ZM4.41895 5.36271C4.41895 5.13259 4.2324 4.94605 4.00228 4.94605C3.77215 4.94605 3.58561 5.13259 3.58561 5.36271V5.36738C3.58561 5.59751 3.77215 5.78405 4.00228 5.78405C4.2324 5.78405 4.41895 5.59751 4.41895 5.36738V5.36271ZM2.90951 0.642947C3.38578 -0.214316 4.61865 -0.214316 5.0949 0.642947L7.84532 5.59367C8.30816 6.42684 7.7057 7.45071 6.75261 7.45071H1.2518C0.298692 7.45071 -0.303766 6.42684 0.1591 5.59367L2.90951 0.642947Z" fill="#F2F2F2"/>
</svg>
